<svg width="20" height="20" viewBox="0 0 20 20" fill="none" xmlns="http://www.w3.org/2000/svg">
<path fill-rule="evenodd" clip-rule="evenodd" d="M10 18.125C11.4264 18.1271 12.8279 17.7519 14.0625 17.0375V14.375C14.0625 13.6291 13.7662 12.9137 13.2387 12.3863C12.7113 11.8588 11.9959 11.5625 11.25 11.5625H8.75C8.00408 11.5625 7.28871 11.8588 6.76126 12.3863C6.23382 12.9137 5.9375 13.6291 5.9375 14.375V17.0375C7.17207 17.7519 8.57363 18.1271 10 18.125ZM15.9375 14.375V15.5463C17.0184 14.3891 17.7376 12.9414 18.0068 11.381C18.2759 9.82066 18.0833 8.21564 17.4525 6.76328C16.8217 5.31092 15.7803 4.07452 14.4563 3.20605C13.1323 2.33759 11.5834 1.87493 10 1.87493C8.41658 1.87493 6.86767 2.33759 5.54366 3.20605C4.21966 4.07452 3.17826 5.31092 2.5475 6.76328C1.91674 8.21564 1.72409 9.82066 1.99324 11.381C2.2624 12.9414 2.98162 14.3891 4.0625 15.5463V14.375C4.06249 13.4086 4.36102 12.4658 4.91725 11.6755C5.47349 10.8852 6.26027 10.2861 7.17 9.96C6.69798 9.41708 6.3921 8.74984 6.28883 8.03787C6.18557 7.3259 6.28928 6.59926 6.58759 5.94461C6.88591 5.28995 7.36624 4.73493 7.97129 4.34573C8.57635 3.95653 9.28058 3.74959 10 3.74959C10.7194 3.74959 11.4237 3.95653 12.0287 4.34573C12.6338 4.73493 13.1141 5.28995 13.4124 5.94461C13.7107 6.59926 13.8144 7.3259 13.7112 8.03787C13.6079 8.74984 13.302 9.41708 12.83 9.96C13.7397 10.2861 14.5265 10.8852 15.0827 11.6755C15.639 12.4658 15.9375 13.4086 15.9375 14.375ZM10 20C12.6522 20 15.1957 18.9464 17.0711 17.0711C18.9464 15.1957 20 12.6522 20 10C20 7.34784 18.9464 4.8043 17.0711 2.92893C15.1957 1.05357 12.6522 0 10 0C7.34784 0 4.8043 1.05357 2.92893 2.92893C1.05357 4.8043 0 7.34784 0 10C0 12.6522 1.05357 15.1957 2.92893 17.0711C4.8043 18.9464 7.34784 20 10 20ZM11.875 7.5C11.875 7.99728 11.6775 8.47419 11.3258 8.82583C10.9742 9.17746 10.4973 9.375 10 9.375C9.50272 9.375 9.02581 9.17746 8.67417 8.82583C8.32254 8.47419 8.125 7.99728 8.125 7.5C8.125 7.00272 8.32254 6.52581 8.67417 6.17417C9.02581 5.82254 9.50272 5.625 10 5.625C10.4973 5.625 10.9742 5.82254 11.3258 6.17417C11.6775 6.52581 11.875 7.00272 11.875 7.5Z" fill="#03A9F4"/>
</svg>
