<svg width="21" height="18" viewBox="0 0 21 18" fill="none" xmlns="http://www.w3.org/2000/svg">
<path d="M19.4164 5.60939C18.9322 4.56354 18.2279 3.61294 17.3427 2.81056C16.4601 2.00679 15.4117 1.36774 14.257 0.929706C13.0741 0.478791 11.8032 0.247652 10.5197 0.250018H10.4765C9.17103 0.255877 7.90871 0.490252 6.71975 0.95119C5.57496 1.39372 4.5364 2.0339 3.66212 2.83596C2.78546 3.63653 2.08922 4.58381 1.61219 5.62502C1.117 6.70776 0.866088 7.86921 0.874215 9.04103C0.880688 10.3965 1.23889 11.7422 1.90781 12.9453V15.9141C1.90781 16.4102 2.35232 16.8125 2.89825 16.8125H6.17382C7.50924 17.4224 8.98289 17.7434 10.4787 17.75H10.524C11.8144 17.75 13.0637 17.5235 14.2419 17.0801C15.3908 16.6473 16.4352 16.0157 17.3168 15.2207C18.2058 14.4219 18.905 13.4883 19.3948 12.4473C19.9019 11.3692 20.1608 10.2227 20.1673 9.03908C20.1716 7.84963 19.917 6.69533 19.4164 5.60939ZM6.21266 9.93752C5.643 9.93752 5.17906 9.5176 5.17906 9.00002C5.17906 8.48244 5.643 8.06252 6.21266 8.06252C6.78232 8.06252 7.24625 8.48244 7.24625 9.00002C7.24625 9.5176 6.78448 9.93752 6.21266 9.93752ZM10.5197 9.93752C9.95 9.93752 9.48607 9.5176 9.48607 9.00002C9.48607 8.48244 9.95 8.06252 10.5197 8.06252C11.0893 8.06252 11.5533 8.48244 11.5533 9.00002C11.5533 9.5176 11.0893 9.93752 10.5197 9.93752ZM14.8267 9.93752C14.257 9.93752 13.7931 9.5176 13.7931 9.00002C13.7931 8.48244 14.257 8.06252 14.8267 8.06252C15.3963 8.06252 15.8603 8.48244 15.8603 9.00002C15.8603 9.5176 15.3963 9.93752 14.8267 9.93752Z" fill="#03A9F4"/>
</svg>
