<svg width="10" height="8" viewBox="0 0 10 8" fill="none" xmlns="http://www.w3.org/2000/svg">
<path d="M6.982 0C6.13701 0 5.38708 0.309766 4.87899 0.842188C4.3709 0.309766 3.62097 0 2.77598 0C2.04002 0.000826991 1.33445 0.272716 0.814048 0.756029C0.293645 1.23934 0.000890456 1.89462 0 2.57812C0 5.40391 4.4504 7.66172 4.63967 7.75664C4.71322 7.79343 4.79545 7.81269 4.87899 7.81269C4.96253 7.81269 5.04476 7.79343 5.11831 7.75664C5.30758 7.66172 9.75798 5.40391 9.75798 2.57812C9.75709 1.89462 9.46433 1.23934 8.94393 0.756029C8.42353 0.272716 7.71796 0.000826991 6.982 0ZM6.75109 5.56094C6.16531 6.02259 5.5391 6.43809 4.87899 6.80313C4.21888 6.43809 3.59267 6.02259 3.00689 5.56094C2.09544 4.83477 1.00945 3.72734 1.00945 2.57812C1.00945 2.143 1.19556 1.7257 1.52685 1.41803C1.85814 1.11035 2.30746 0.9375 2.77598 0.9375C3.52465 0.9375 4.15135 1.30469 4.4117 1.89609C4.44959 1.98231 4.51428 2.05609 4.5975 2.10802C4.68073 2.15995 4.77872 2.18769 4.87899 2.18769C4.97926 2.18769 5.07725 2.15995 5.16048 2.10802C5.2437 2.05609 5.30839 1.98231 5.34628 1.89609C5.60663 1.30469 6.23333 0.9375 6.982 0.9375C7.45052 0.9375 7.89984 1.11035 8.23113 1.41803C8.56242 1.7257 8.74853 2.143 8.74853 2.57812C8.74853 3.72734 7.66254 4.83477 6.75109 5.56094Z" fill="#C4CFDD"/>
</svg>
