<svg width="62" height="42" viewBox="0 0 62 42" fill="none" xmlns="http://www.w3.org/2000/svg">
<path d="M13.5294 15C16.1931 15 18.7969 15.7698 21.0117 17.212C23.2265 18.6542 24.9527 20.704 25.972 23.1023C26.9914 25.5006 27.2581 28.1396 26.7384 30.6856C26.2188 33.2316 24.9361 35.5702 23.0526 37.4058C21.1691 39.2413 18.7693 40.4914 16.1568 40.9978C13.5443 41.5042 10.8364 41.2443 8.37547 40.2509C5.91455 39.2575 3.81117 37.5753 2.3313 35.4169C0.851441 33.2585 0.0615672 30.7209 0.0615672 28.125L0 26.25C0 19.2881 2.83785 12.6113 7.88927 7.68845C12.9407 2.76562 19.7919 0 26.9356 0V7.5C24.4079 7.49338 21.9039 7.97516 19.5685 8.91749C17.233 9.85982 15.1124 11.244 13.3293 12.99C12.6363 13.6641 11.9969 14.3887 11.4169 15.1575C12.1056 15.0525 12.8098 14.9962 13.5255 14.9962L13.5294 15ZM48.1609 15C50.8246 15 53.4285 15.7698 55.6432 17.212C57.858 18.6542 59.5842 20.704 60.6036 23.1023C61.6229 25.5006 61.8896 28.1396 61.37 30.6856C60.8503 33.2316 59.5676 35.5702 57.6841 37.4058C55.8006 39.2413 53.4009 40.4914 50.7884 40.9978C48.1759 41.5042 45.4679 41.2443 43.007 40.2509C40.5461 39.2575 38.4427 37.5753 36.9628 35.4169C35.483 33.2585 34.6931 30.7209 34.6931 28.125L34.6315 26.25C34.6315 19.2881 37.4694 12.6113 42.5208 7.68845C47.5722 2.76562 54.4234 0 61.5672 0V7.5C59.0395 7.49338 56.5355 7.97516 54.2 8.91749C51.8646 9.85982 49.7439 11.244 47.9608 12.99C47.2678 13.6641 46.6285 14.3887 46.0484 15.1575C46.7372 15.0525 47.4414 15 48.1609 15Z" fill="#03A9F4"/>
</svg>
