<svg width="50" height="17" viewBox="0 0 50 17" fill="none" xmlns="http://www.w3.org/2000/svg">
<path d="M3.09837 16.603H18.6969C20.4054 16.603 21.7961 15.2175 21.7961 13.5136V11.5467H28.3618V13.5136C28.3618 15.2158 29.7517 16.603 31.461 16.603H47.0595C48.768 16.603 50.1587 15.2175 50.1587 13.5136V3.0894C50.1587 1.38638 48.7688 0 47.0595 0H31.4593C29.7509 0 28.3601 1.38554 28.3601 3.0894V5.05546H21.7944V3.0894C21.7944 1.38638 20.4045 0 18.6952 0H3.09837C1.38994 0 0 1.38554 0 3.0894V13.5144C0 15.2175 1.38994 16.603 3.09837 16.603ZM31.7215 3.35159H46.794V13.2522H31.7215V11.5475H34.3215C35.9434 11.5475 37.2627 10.2324 37.2627 8.61563V7.98737C37.2627 6.37063 35.9434 5.05546 34.3215 5.05546H31.7215V3.35159ZM3.3614 3.35159H18.4339V5.05629H15.8339C14.212 5.05629 12.8926 6.37146 12.8926 7.9882V8.61647C12.8926 10.234 14.212 11.5484 15.8339 11.5484H18.4339V13.2531H3.3614V3.35159Z" fill="#C4CFDD"/>
</svg>
