<svg width="48" height="52" viewBox="0 0 48 52" fill="none" xmlns="http://www.w3.org/2000/svg">
<path d="M13.0317 0.285706C9.76679 0.285706 7.12009 2.92403 7.12009 6.17856V16.6317C8.82152 16.0335 10.7916 16.4127 12.1524 17.7693C13.5133 19.1259 13.8937 21.0896 13.2936 22.7857H16.2561C18.9273 22.7857 21.0929 24.9444 21.0929 27.6071C21.0929 30.2698 18.9273 32.4286 16.2561 32.4286H13.2936C13.8937 34.1246 13.5133 36.0883 12.1524 37.445C10.7916 38.8014 8.82152 39.1807 7.12009 38.5826V45.8208C7.12009 49.0751 9.76679 51.7136 13.0317 51.7136H35.6031C38.868 51.7136 41.5147 49.0751 41.5147 45.8208V38.5826C39.8132 39.1807 37.8432 38.8014 36.4823 37.445C35.1216 36.0883 34.7411 34.1246 35.341 32.4286H32.3786C29.7074 32.4286 27.5419 30.2698 27.5419 27.6071C27.5419 24.9444 29.7074 22.7857 32.3786 22.7857H35.341C34.7411 21.0896 35.1213 19.1259 36.4823 17.7693C37.8432 16.4127 39.8132 16.0335 41.5147 16.6317V6.17856C41.5147 2.92403 38.868 0.285706 35.6031 0.285706H13.0317Z" fill="#C4CFDD"/>
<path d="M7.59138 35.1712L1.14332 28.7435C0.513709 28.1158 0.513709 27.0984 1.14332 26.4708L7.5923 20.0422C8.22192 19.4146 9.24275 19.4146 9.87236 20.0422C10.4233 20.5914 10.4922 21.4391 10.0789 22.0629C10.0199 22.1521 9.95106 22.2365 9.87236 22.3149L6.17566 26H16.2561C17.1465 26 17.8684 26.7196 17.8684 27.6071C17.8684 28.4947 17.1465 29.2143 16.2561 29.2143H6.17566L9.87236 32.8993C10.502 33.527 10.502 34.5444 9.87236 35.1721C9.24275 35.7997 8.22099 35.7988 7.59138 35.1712Z" fill="#C4CFDD"/>
<path d="M41.0424 20.0422L47.4914 26.4708C48.121 27.0984 48.121 28.1158 47.4914 28.7435L41.0435 35.1712C40.4138 35.7988 39.3921 35.7997 38.7624 35.1721C38.1328 34.5444 38.1328 33.527 38.7624 32.8993L42.459 29.2143H32.3786C31.4882 29.2143 30.7664 28.4947 30.7664 27.6071C30.7664 27.4961 30.7775 27.3879 30.799 27.2831C30.9495 26.5509 31.5996 26 32.3786 26H42.459L38.7624 22.3149C38.6838 22.2365 38.6148 22.1521 38.5559 22.0629C38.1427 21.4391 38.2115 20.5914 38.7624 20.0422C39.3921 19.4146 40.4127 19.4146 41.0424 20.0422Z" fill="#C4CFDD"/>
</svg>
