<svg width="42" height="42" viewBox="0 0 42 42" fill="none" xmlns="http://www.w3.org/2000/svg">
<path fill-rule="evenodd" clip-rule="evenodd" d="M21 0.166504C9.49376 0.166504 0.166672 9.49359 0.166672 20.9998C0.166672 24.9373 1.26042 28.6248 3.1625 31.7665L1.30417 38.0832C1.19747 38.4458 1.19045 38.8306 1.28385 39.1969C1.37724 39.5632 1.5676 39.8976 1.83492 40.1649C2.10224 40.4322 2.43663 40.6226 2.80296 40.716C3.16928 40.8094 3.554 40.8024 3.91667 40.6957L10.2333 38.8373C13.4806 40.8021 17.2046 41.8383 21 41.8332C32.5063 41.8332 41.8333 32.5061 41.8333 20.9998C41.8333 9.49359 32.5063 0.166504 21 0.166504ZM16.2875 25.7144C20.5021 29.9269 24.525 30.4832 25.9458 30.5353C28.1063 30.6144 30.2104 28.9644 31.0292 27.0498C31.1325 26.8117 31.1701 26.5501 31.1378 26.2925C31.1056 26.0348 31.0047 25.7906 30.8458 25.5853C29.7042 24.1269 28.1604 23.079 26.6521 22.0373C26.3372 21.8196 25.9502 21.7322 25.5722 21.7936C25.1943 21.855 24.8548 22.0603 24.625 22.3665L23.375 24.2728C23.3093 24.3752 23.2069 24.4487 23.0887 24.4782C22.9706 24.5076 22.8457 24.4908 22.7396 24.4311C21.8917 23.9457 20.6563 23.1207 19.7688 22.2332C18.8813 21.3457 18.1063 20.1665 17.6708 19.3728C17.6169 19.2719 17.6012 19.1549 17.6269 19.0434C17.6526 18.932 17.7178 18.8336 17.8104 18.7665L19.7354 17.3373C20.0101 17.0985 20.1874 16.7669 20.2335 16.4058C20.2796 16.0447 20.1913 15.6792 19.9854 15.379C19.0521 14.0123 17.9646 12.2748 16.3875 11.1228C16.184 10.9753 15.9456 10.8833 15.6957 10.8559C15.4458 10.8285 15.1932 10.8666 14.9625 10.9665C13.0458 11.7873 11.3875 13.8915 11.4667 16.0561C11.5188 17.4769 12.075 21.4998 16.2875 25.7144Z" fill="white"/>
</svg>
