<svg width="46" height="46" viewBox="0 0 46 46" fill="none" xmlns="http://www.w3.org/2000/svg">
<path fill-rule="evenodd" clip-rule="evenodd" d="M23 45.5C25.9547 45.5 28.8806 44.918 31.6104 43.7873C34.3402 42.6566 36.8206 40.9992 38.9099 38.9099C40.9992 36.8206 42.6566 34.3402 43.7873 31.6104C44.918 28.8806 45.5 25.9547 45.5 23C45.5 20.0453 44.918 17.1194 43.7873 14.3896C42.6566 11.6598 40.9992 9.17941 38.9099 7.0901C36.8206 5.00078 34.3402 3.34344 31.6104 2.21271C28.8806 1.08198 25.9547 0.5 23 0.5C17.0326 0.5 11.3097 2.87053 7.0901 7.0901C2.87053 11.3097 0.5 17.0326 0.5 23C0.5 28.9674 2.87053 34.6903 7.0901 38.9099C11.3097 43.1295 17.0326 45.5 23 45.5ZM19.9575 12.975L34.0675 20.815C34.457 21.0316 34.7816 21.3484 35.0076 21.7325C35.2335 22.1167 35.3527 22.5543 35.3527 23C35.3527 23.4457 35.2335 23.8833 35.0076 24.2675C34.7816 24.6516 34.457 24.9684 34.0675 25.185L19.9575 33.025C19.5006 33.2789 18.9853 33.4091 18.4627 33.4026C17.94 33.3961 17.4281 33.2531 16.9777 32.9879C16.5273 32.7227 16.154 32.3443 15.8948 31.8904C15.6356 31.4365 15.4995 30.9227 15.5 30.4V15.6C15.4995 15.0773 15.6356 14.5635 15.8948 14.1096C16.154 13.6557 16.5273 13.2773 16.9777 13.0121C17.4281 12.7469 17.94 12.6039 18.4627 12.5974C18.9853 12.5909 19.5006 12.721 19.9575 12.975Z" fill="#03A9F4"/>
</svg>
